<svg height="512pt" viewBox="-67 0 512 512.00002" width="512pt" xmlns="http://www.w3.org/2000/svg"><path d="m68.308594 324.023438-64.746094 137.582031 65 .851562 42.082031 49.542969 69.433594-147.546875zm0 0" fill="#2aacea"/><path d="m311.949219 328.960938-114.09375 35.492187 69.4375 147.546875 42.082031-49.542969 65-.851562zm0 0" fill="#2aacea"/><g fill="none" stroke="#fff" stroke-miterlimit="10" stroke-width="30" transform="matrix(.99994 0 0 .99994 -67.032 0)"><path d="m361.74191 198.703824c0 58.390368-47.334989 105.725358-105.725357 105.725358s-105.725357-47.33499-105.725357-105.725358c0-58.390367 47.334989-105.725357 105.725357-105.725357s105.725357 47.33499 105.725357 105.725357zm0 0"/><path d="m361.74191 198.703824c0 58.390368-47.334989 105.725358-105.725357 105.725358s-105.725357-47.33499-105.725357-105.725358c0-58.390367 47.334989-105.725357 105.725357-105.725357s105.725357 47.33499 105.725357 105.725357zm0 0"/><path d="m361.74191 198.703824c0 58.390368-47.334989 105.725358-105.725357 105.725358s-105.725357-47.33499-105.725357-105.725358c0-58.390367 47.334989-105.725357 105.725357-105.725357s105.725357 47.33499 105.725357 105.725357zm0 0"/></g><path d="m350.429688 198.699219 27.507812 61.394531-58.347656 33.496094-13.839844 65.847656-66.886719-7.191406-49.894531 45.140625-49.898438-45.140625-66.886718 7.191406-13.835938-65.847656-58.347656-33.496094 27.507812-61.394531-27.507812-61.40625 58.347656-33.5 13.835938-65.84375 66.886718 7.1875 49.898438-45.136719 49.894531 45.136719 66.886719-7.1875 13.839844 65.84375 58.347656 33.5zm0 0" fill="#f6d32b"/><path d="m350.429688 198.699219 27.507812 61.394531-58.347656 33.496094-13.839844 65.847656-66.886719-7.191406-49.894531 45.140625v-397.386719l49.894531 45.136719 66.886719-7.1875 13.839844 65.84375 58.347656 33.5zm0 0" fill="#ffaf12"/><path d="m309.691406 198.699219c0 66.554687-54.15625 120.710937-120.722656 120.710937s-120.722656-54.15625-120.722656-120.710937c0-66.566407 54.15625-120.722657 120.722656-120.722657s120.722656 54.15625 120.722656 120.722657zm0 0" fill="#ffaf12"/><path d="m309.691406 198.699219c0 66.554687-54.15625 120.710937-120.722656 120.710937v-241.433594c66.566406 0 120.722656 54.15625 120.722656 120.722657zm0 0" fill="#f80"/></svg>